<?xml version="1.0" encoding="UTF-8" standalone="no"?>
<svg
   xmlns:dc="http://purl.org/dc/elements/1.1/"
   xmlns:cc="http://creativecommons.org/ns#"
   xmlns:rdf="http://www.w3.org/1999/02/22-rdf-syntax-ns#"
   xmlns:svg="http://www.w3.org/2000/svg"
   xmlns="http://www.w3.org/2000/svg"
   xmlns:sodipodi="http://sodipodi.sourceforge.net/DTD/sodipodi-0.dtd"
   xmlns:inkscape="http://www.inkscape.org/namespaces/inkscape"
   style="overflow:visible"
   xml:space="preserve"
   id="svg2"
   viewBox="0 0 138.51804 324.25922"
   height="324.25922"
   width="138.51804"
   version="1.1"
   inkscape:version="0.91 r13725"
   sodipodi:docname="esculapio.svg"><sodipodi:namedview
     pagecolor="#ffffff"
     bordercolor="#666666"
     borderopacity="1"
     objecttolerance="10"
     gridtolerance="10"
     guidetolerance="10"
     inkscape:pageopacity="0"
     inkscape:pageshadow="2"
     inkscape:window-width="1366"
     inkscape:window-height="661"
     id="namedview13"
     showgrid="false"
     inkscape:zoom="0.94368943"
     inkscape:cx="-44.325332"
     inkscape:cy="148.54938"
     inkscape:window-x="0"
     inkscape:window-y="24"
     inkscape:window-maximized="1"
     inkscape:current-layer="svg2"
     fit-margin-top="0"
     fit-margin-left="0"
     fit-margin-right="0"
     fit-margin-bottom="0" /><metadata
     id="metadata85"><rdf:RDF><cc:Work
         rdf:about=""><dc:format>image/svg+xml</dc:format><dc:type
           rdf:resource="http://purl.org/dc/dcmitype/StillImage" /><dc:title></dc:title></cc:Work></rdf:RDF></metadata><defs
     id="defs83" /><path
     inkscape:connector-curvature="0"
     d="m 86.257261,269.55683 c 7.858002,3.98002 15.113889,9.47042 18.155029,19.88991 1.32668,-17.24677 -8.347845,-24.73738 -17.950929,-29.78894 0.01037,0.0204 -0.2041,9.90924 -0.2041,9.89903"
     id="path646"
     style="fill:#efefe0;fill-opacity:1;fill-rule:nonzero;stroke:none" /><path
     inkscape:connector-curvature="0"
     d="m 138.51804,94.434751 c 0,-15.685378 -11.37879,-33.075021 -39.238949,-39.218542 -2.061454,-0.449029 -5.214849,-0.765389 -8.500926,-0.979706 -0.0612,2.357406 -0.183691,7.776355 -0.183691,7.776355 -0.04084,1.694073 -0.173486,7.980467 -0.204112,9.327554 2.561505,0.224508 4.469882,0.540868 5.347531,0.755185 16.195637,3.867762 21.992187,13.154486 21.992187,22.339154 0,14.879169 -12.73609,20.492019 -28.370433,24.727169 -1.69406,0.45924 -3.42895,0.89806 -5.174032,1.34709 -4.745411,1.18381 -9.643901,2.32678 -14.450552,3.62285 -1.734877,0.45923 -3.449359,0.95928 -5.143419,1.46954 -17.338608,5.27608 -32.238189,13.63414 -32.238189,35.05482 0,21.2166 17.00184,29.14603 33.595481,34.25884 -0.112287,-6.0925 -0.234713,-12.24623 -0.346973,-18.38976 -7.33753,-3.42894 -12.501358,-7.96005 -12.501358,-15.57312 0,-7.43959 4.704595,-11.91966 11.899251,-15.17512 1.592004,-0.72457 3.306486,-1.3777 5.123011,-2.00021 4.1331,-1.40833 8.776456,-2.59212 13.644332,-3.77592 1.704265,-0.40822 3.439155,-0.82663 5.184237,-1.25524 23.369884,-5.65369 49.566604,-12.97081 49.566604,-44.310939"
     id="path650"
     style="fill:#efefe0;fill-opacity:1;fill-rule:nonzero;stroke:none" /><path
     inkscape:connector-curvature="0"
     d="m 54.54158,244.07345 c 0.04084,8.57236 6.337428,13.24634 12.654435,16.76713 -0.02036,-1.43894 -0.275542,-14.70568 -0.275542,-14.9302 0.132669,-2.64314 2.704379,-4.23515 4.76582,-5.20464 3.041148,-1.43894 6.123125,-2.47986 10.041909,-3.83715 1.867546,-0.65314 3.479972,-1.28586 5.265884,-1.82673 12.685048,-3.81674 27.339704,-8.68462 27.339704,-24.11486 0,-15.45067 -12.57279,-21.76768 -26.319194,-26.51309 -0.102043,4.9189 -0.244917,12.09315 -0.336769,17.06308 5.806752,2.27576 9.643902,5.05157 9.643902,9.45001 0,5.521 -5.898591,8.70502 -10.082726,10.31744 -1.734878,0.68375 -4.388222,1.5614 -5.122998,1.79611 -3.377916,1.04093 -7.000761,2.25535 -10.378677,3.50038 -1.796117,0.66334 -3.52079,1.39811 -5.143419,2.22474 -5.939422,3.05135 -12.093146,7.50081 -12.052329,15.30778"
     id="path654"
     style="fill:#efefe0;fill-opacity:1;fill-rule:nonzero;stroke:none" /><path
     inkscape:connector-curvature="0"
     d="m 63.12925,56.681664 c -8.439688,2.408427 -13.399416,5.592448 -15.277167,6.225168 -5.469984,1.816525 -13.174908,2.12268 -21.134954,10.786889 -1.418517,1.551187 -4.867876,5.888386 -7.317121,9.439789 -2.39821,3.459563 -2.500266,9.021398 -4.26577,12.001307 -2.551288,4.326996 -1.949181,6.806863 -1.949181,6.806863 l 0.08169,0.1224 c -0.0918,0.54087 -0.602107,2.83704 -2.928887,5.42916 -2.663561,2.94929 -6.163942,4.59233 -10.33786,3.929 3.622846,1.80632 8.6438,-0.72457 8.6438,-0.72457 0,0 -0.959297,2.73499 -1.918581,7.21506 4.071874,-9.22548 7.796763,-12.58299 8.970364,-13.52187 1.755299,0.398 5.367927,0.23472 12.093146,-3.62284 C 35.391594,96.410396 46.831612,89.276978 50.066654,84.776483 53.55683,79.918811 58.353277,76.704177 63.537513,74.622327 63.39464,67.825665 63.251766,61.773984 63.129301,56.681599 m -32.085111,28.748013 -3.929001,0.857241 4.69439,-7.684503 5.500596,0.173486 -6.265985,6.653776"
     id="path658"
     style="fill:#efefe0;fill-opacity:1;fill-rule:nonzero;stroke:none" /><path
     inkscape:connector-curvature="0"
     d="m 78.827892,243.01313 c -0.724571,0.25514 -2.632935,1.07155 -3.837149,1.48996 -1.275657,0.45924 -2.888069,1.10216 -2.888069,1.5614 0,0.11228 1.214418,66.45619 1.214418,67.91553 0,13.66475 6.970148,13.74639 6.970148,0 0,-0.97969 1.398109,-71.90576 1.398109,-71.90576 0,0 -1.673652,0.51025 -2.857457,0.93887"
     id="path662"
     style="fill:#efefe0;fill-opacity:1;fill-rule:nonzero;stroke:none" /><path
     inkscape:connector-curvature="0"
     d="m 71.627103,221.12096 c 2.173702,-0.75518 4.316791,-1.41852 6.337429,-2.04103 1.510356,-0.45924 2.908478,-0.89806 4.20453,-1.32668 0.0918,-4.17392 1.275644,-61.91489 1.489961,-72.40583 -5.184236,1.28586 -9.70514,2.50028 -13.419825,3.86778 0.153078,7.87839 1.26544,65.59896 1.387905,71.90576"
     id="path666"
     style="fill:#efefe0;fill-opacity:1;fill-rule:nonzero;stroke:none" /><path
     inkscape:connector-curvature="0"
     d="m 77.423651,0 c -19.542937,0 -11.246123,28.982738 -9.694936,38.432744 0.07144,0.438825 1.581812,65.476496 1.887968,80.406686 2.969704,-0.7858 5.919012,-1.51037 8.776456,-2.21452 2.05125,-0.50006 4.010649,-0.98991 5.898604,-1.46955 0.306155,-14.36891 1.745082,-76.436869 1.785912,-76.84508 C 87.241038,28.207145 97.487059,0 77.423651,0"
     id="path670"
     style="fill:#efefe0;fill-opacity:1;fill-rule:nonzero;stroke:none" /></svg>